<?xml version="1.0" encoding="iso-8859-1"?>
<!-- Generator: Adobe Illustrator 19.0.0, SVG Export Plug-In . SVG Version: 6.00 Build 0)  -->
<svg version="1.1" id="Layer_1" xmlns="http://www.w3.org/2000/svg" xmlns:xlink="http://www.w3.org/1999/xlink" x="0px" y="0px"
	 viewBox="0 0 512 512" style="enable-background:new 0 0 512 512;" xml:space="preserve">
<g>
	<g>
		<path d="M339.2,109.15V25.6c0-14.14-11.46-25.6-25.6-25.6H160c-14.14,0-25.6,11.46-25.6,25.6v83.55
			C88.047,141.577,57.6,195.26,57.6,256c0,60.74,30.447,114.423,76.8,146.85v83.55c0,14.14,11.46,25.6,25.6,25.6h153.6
			c14.14,0,25.6-11.46,25.6-25.6v-83.55C385.553,370.423,416,316.74,416,256C416,195.26,385.553,141.577,339.2,109.15z M160,25.6
			h153.6v68.736C290.287,83.217,264.303,76.8,236.8,76.8s-53.487,6.417-76.8,17.536V25.6z M313.6,486.4H160v-68.736
			c23.313,11.128,49.297,17.536,76.8,17.536s53.487-6.417,76.8-17.536V486.4z M373.487,292.13
			c-6.647-2.415-13.986,1.007-16.41,7.646c-2.415,6.647,1.007,13.986,7.646,16.41c6.4,2.33,13.355-0.845,16.026-7.023
			C359.1,367.753,302.916,409.6,236.8,409.6S114.5,367.753,92.843,309.163c2.671,6.178,9.626,9.353,16.026,7.023
			c6.647-2.415,10.069-9.762,7.646-16.41c-2.415-6.639-9.762-10.069-16.41-7.646c-6.409,2.33-9.694,9.242-7.757,15.693
			C86.537,291.61,83.2,274.21,83.2,256c0-18.21,3.337-35.61,9.156-51.823c-1.937,6.451,1.348,13.363,7.757,15.693
			c6.647,2.415,13.986-1.007,16.41-7.654c2.415-6.639-1.007-13.986-7.646-16.401c-6.4-2.33-13.355,0.845-16.026,7.023
			C114.5,144.247,170.684,102.4,236.8,102.4c66.116,0,122.3,41.847,143.957,100.437c-2.671-6.178-9.626-9.353-16.026-7.023
			c-6.647,2.415-10.069,9.762-7.646,16.401c2.415,6.647,9.762,10.069,16.41,7.654c6.409-2.33,9.694-9.242,7.757-15.693
			c5.82,16.213,9.156,33.604,9.156,51.823c0,18.219-3.345,35.61-9.165,51.823C383.181,301.372,379.895,294.46,373.487,292.13z"/>
	</g>
</g>
<g>
	<g>
		<path d="M224,179.2v64h-38.4v25.6h51.2c7.074,0,12.8-5.726,12.8-12.8v-76.8H224z"/>
	</g>
</g>
<g>
	<g>
		<path d="M236.8,128c-70.579,0-128,57.421-128,128s57.421,128,128,128s128-57.421,128-128S307.379,128,236.8,128z M236.8,358.4
			c-56.55,0-102.4-45.85-102.4-102.4c0-56.559,45.85-102.4,102.4-102.4S339.2,199.441,339.2,256
			C339.2,312.55,293.35,358.4,236.8,358.4z"/>
	</g>
</g>
<g>
	<g>
		<rect x="428.8" y="230.4" width="25.6" height="51.2"/>
	</g>
</g>
<g>
	<g>
		<circle cx="377.6" cy="256" r="12.8"/>
	</g>
</g>
<g>
	<g>
		<circle cx="96" cy="256" r="12.8"/>
	</g>
</g>
<g>
</g>
<g>
</g>
<g>
</g>
<g>
</g>
<g>
</g>
<g>
</g>
<g>
</g>
<g>
</g>
<g>
</g>
<g>
</g>
<g>
</g>
<g>
</g>
<g>
</g>
<g>
</g>
<g>
</g>
</svg>
